<svg width="340" height="340" viewBox="0 0 340 340" fill="none" xmlns="http://www.w3.org/2000/svg">
<g clip-path="url(#clip0)">
<path d="M262.122 232.344C262.319 205.524 251.717 184.313 230.57 169.334C214.237 157.801 194.416 151.785 175.245 146.004C135.309 133.897 123.724 127.52 123.724 108.422C123.724 87.149 151.37 79.58 175.037 79.58C192.273 79.58 212.103 84.939 224.418 92.881L248.833 55.069C232.738 44.635 210.71 37.518 188.958 35.309V0H143.92V37.785C103.885 46.592 78.6649 72.758 78.6649 108.422C78.6649 133.399 89.0439 153.207 109.455 167.178C124.979 177.844 143.912 183.571 162.201 189.116C201.373 200.956 217.28 208.171 217.099 232.065L217.098 232.241C217.098 252.296 190.521 259.425 167.752 259.425C146.244 259.425 122.855 249.999 109.597 235.984L76.8779 266.933C93.6679 284.691 118.062 297.246 143.919 302.167V339.005H188.958V302.96C233.445 296.592 262.078 269.809 262.122 232.344Z" fill="white"/>
</g>
<defs>
<clipPath id="clip0">
<rect width="339.004" height="339.004" fill="white"/>
</clipPath>
</defs>
</svg>
