<svg width="337" height="461" viewBox="0 0 337 461" fill="none" xmlns="http://www.w3.org/2000/svg">
<path d="M276.839 105.102C272.38 105.102 267.841 108.664 267.841 115.499V122.72C267.841 123.801 266.962 124.693 265.865 124.693H181.632C174.01 124.693 167.81 130.896 167.81 138.52V166.073C167.81 173.698 174.01 179.9 181.632 179.9H265.865C266.383 179.9 266.865 180.096 267.22 180.469C267.575 180.824 267.774 181.297 267.758 181.827L267.697 189.759C267.646 193.89 269.22 196.363 270.546 197.706C272.166 199.326 274.334 200.217 276.64 200.217C278.92 200.217 281.205 199.379 283.409 197.737L330.99 162.14C334.169 159.779 335.992 156.326 336.007 152.667C336.007 149.011 334.19 145.558 331.021 143.179L283.624 107.597C281.435 105.932 279.139 105.102 276.839 105.102ZM279.596 183.881L279.612 181.946C279.658 178.239 278.236 174.771 275.646 172.148C273.056 169.51 269.562 168.063 265.866 168.063H181.633C180.551 168.063 179.662 167.187 179.662 166.09V138.535C179.662 137.435 180.551 136.559 181.633 136.559H265.866C273.488 136.559 279.688 130.359 279.688 122.734C279.688 122.734 279.688 122.001 279.688 121.099C279.688 120.197 282.516 121.589 286.01 124.204L317.595 147.918C321.083 150.541 321.078 154.783 317.584 157.391L285.908 181.082C282.414 183.698 279.586 184.947 279.596 183.881Z" fill="white"/>
<path d="M201.71 394.607H45.247C40.019 394.607 35.762 398.862 35.762 404.092V405.909C35.762 411.003 39.631 415.705 44.585 416.644C58.829 419.299 87.634 423.753 120.481 423.753H123.624H126.46C159.325 423.753 188.122 419.299 202.371 416.644C207.311 415.705 211.182 410.998 211.182 405.909V404.092C211.195 398.873 206.94 394.607 201.71 394.607ZM205.27 405.921C205.27 408.14 203.407 410.436 201.289 410.842C187.254 413.446 158.858 417.849 126.468 417.849H123.277H120.482C88.107 417.849 59.724 413.447 45.676 410.842C43.551 410.436 41.68 408.14 41.68 405.921V404.103C41.68 402.143 43.284 400.539 45.242 400.539H201.712C203.667 400.539 205.272 402.143 205.272 404.103V405.921H205.27Z" fill="white"/>
<path d="M141.716 32.562C143.351 32.562 144.679 31.237 144.679 29.602C144.679 27.967 143.351 26.639 141.716 26.639H103.329C101.694 26.639 100.366 27.967 100.366 29.602C100.366 31.237 101.694 32.562 103.329 32.562H141.716Z" fill="white"/>
<path d="M64.673 32.334C65.874 32.334 66.847 31.364 66.847 30.163V26.332C66.847 25.146 65.874 24.174 64.673 24.174H56.513C55.312 24.174 54.325 25.147 54.325 26.332V30.155C54.325 31.354 55.313 32.326 56.513 32.326H64.673V32.334Z" fill="white"/>
<path d="M77.7332 32.334C79.9887 32.334 81.8172 30.5055 81.8172 28.25C81.8172 25.9945 79.9887 24.166 77.7332 24.166C75.4776 24.166 73.6492 25.9945 73.6492 28.25C73.6492 30.5055 75.4776 32.334 77.7332 32.334Z" fill="white"/>
<path d="M52.1461 460.494H200.238C224.388 460.494 251.912 431.808 251.912 406.646V203.337C251.912 198.978 249.261 195.438 245.991 195.438C242.716 195.438 240.064 198.978 240.064 203.337V406.636C240.064 425.881 218.478 448.631 200.238 448.631H52.1461C33.9191 448.631 12.3371 425.871 12.3371 406.636V53.847C12.3371 34.609 33.9291 11.85 52.1461 11.85H200.238C218.478 11.85 240.064 34.609 240.064 53.847V108.626C240.064 112.985 242.715 116.525 245.991 116.525C249.261 116.525 251.912 112.985 251.912 108.626V53.847C251.911 28.686 224.388 0 200.237 0H52.1461C28.0101 0 0.487061 28.686 0.487061 53.847V406.647C0.487061 431.809 28.0101 460.494 52.1461 460.494Z" fill="white"/>
<path d="M216.64 108.618V86.338C216.64 75.981 208.22 67.577 197.876 67.577H45.0821C34.7411 67.577 26.3191 75.981 26.3191 86.338V365.444C26.3191 375.788 34.7411 384.207 45.0821 384.207H197.886C208.225 384.207 216.645 375.788 216.645 365.444V203.337C216.645 198.978 215.32 195.438 213.684 195.438C212.049 195.438 210.724 198.978 210.724 203.337V365.444C210.724 372.522 204.97 378.281 197.886 378.281H45.0821C38.0111 378.281 32.2451 372.522 32.2451 365.444V86.338C32.2451 79.259 38.0111 73.501 45.0821 73.501H197.886C204.97 73.501 210.724 79.26 210.724 86.338V108.618C210.724 112.977 212.049 116.516 213.684 116.516C215.319 116.517 216.64 112.985 216.64 108.618Z" fill="white"/>
</svg>
