<svg width="322" height="490" viewBox="0 0 322 490" fill="none" xmlns="http://www.w3.org/2000/svg">
<path d="M161.001 0C72.4579 0 0.42395 71.987 0.42395 160.472C0.42395 245.512 146.354 475.618 152.566 485.372C154.402 488.254 157.583 490 161.001 490C164.419 490 167.6 488.254 169.435 485.372C175.647 475.618 321.576 245.511 321.576 160.472C321.576 71.987 249.542 0 161.001 0ZM161.001 461.127C147.794 439.764 120.992 395.54 94.4519 346.539C46.0229 257.121 20.4249 192.781 20.4249 160.472C20.424 83.015 83.4869 20 161.001 20C238.515 20 301.576 83.015 301.576 160.472C301.576 192.781 275.977 257.121 227.549 346.539C201.009 395.539 174.207 439.764 161.001 461.127Z" fill="white"/>
<path d="M160.999 76.071C119.115 76.071 85.0399 109.22 85.0399 149.965C85.0399 190.709 119.115 223.856 160.999 223.856C202.883 223.856 236.958 190.709 236.958 149.965C236.958 109.22 202.883 76.071 160.999 76.071ZM160.999 203.855C130.144 203.855 105.04 179.68 105.04 149.964C105.04 120.247 130.144 96.07 160.999 96.07C191.854 96.07 216.958 120.247 216.958 149.964C216.958 179.68 191.855 203.855 160.999 203.855Z" fill="white"/>
</svg>
