<svg id="Capa_1" enable-background="new 0 0 512 512" height="512" viewBox="0 0 512 512" width="512" xmlns="http://www.w3.org/2000/svg"><g><path d="m460.943 126.795c9.954-10.714 16.057-25.052 16.057-40.795 0-33.084-26.916-60-60-60s-60 26.916-60 60c0 15.743 6.103 30.081 16.057 40.795-30.32 15.887-51.057 47.668-51.057 84.205v30c0 8.284 6.716 15 15 15h160c8.284 0 15-6.716 15-15v-30c0-36.537-20.737-68.318-51.057-84.205zm-43.943-70.795c16.542 0 30 13.458 30 30s-13.458 30-30 30-30-13.458-30-30 13.458-30 30-30zm65 170h-130v-15c0-35.841 29.159-65 65-65s65 29.159 65 65z"/><path d="m190 241v-30c0-36.537-20.737-68.318-51.057-84.205 9.954-10.714 16.057-25.052 16.057-40.795 0-33.084-26.916-60-60-60s-60 26.916-60 60c0 15.743 6.103 30.081 16.057 40.795-30.32 15.887-51.057 47.668-51.057 84.205v30c0 8.284 6.716 15 15 15h160c8.284 0 15-6.716 15-15zm-95-185c16.542 0 30 13.458 30 30s-13.458 30-30 30-30-13.458-30-30 13.458-30 30-30zm65 170h-130v-15c0-35.841 29.159-65 65-65s65 29.159 65 65z"/><path d="m427.606 300.394c-5.858-5.858-15.355-5.858-21.213 0l-60 60c-5.858 5.858-5.858 15.355 0 21.213s15.355 5.858 21.213 0l34.394-34.394v108.787h-292v-145c0-8.284-6.716-15-15-15s-15 6.716-15 15v160c0 8.284 6.716 15 15 15h322c8.284 0 15-6.716 15-15v-123.787l34.394 34.394c5.858 5.858 15.355 5.858 21.213 0s5.858-15.355 0-21.213z"/></g></svg>