<svg width="490" height="490" viewBox="0 0 490 490" fill="none" xmlns="http://www.w3.org/2000/svg">
<path d="M417.846 72.1532L417.847 72.1539C464.053 118.26 489.5 179.733 489.5 245C489.5 310.267 463.953 371.64 417.846 417.847C371.74 464.053 310.267 489.5 245 489.5C179.733 489.5 118.36 463.953 72.1532 417.846C25.9474 371.74 0.5 310.267 0.5 245C0.5 179.733 26.0469 118.36 72.1539 72.1532C118.26 25.9474 179.733 0.5 245 0.5C310.267 0.5 371.74 25.9474 417.846 72.1532ZM467.8 234.5H468.325L468.299 233.975C465.593 179.352 443.243 129.841 408.165 92.3584L407.832 92.0022L407.467 92.3266C391.998 106.1 375.132 117.775 357.071 127.055L356.706 127.243L356.82 127.638C366.106 159.892 371.401 196.249 372.3 234.012L372.312 234.5H372.8H467.8ZM256 255.5H255.5V256V336.3V336.777L255.977 336.799C284.021 338.097 311.265 344.085 336.813 354.364L337.332 354.572L337.482 354.034C345.794 324.191 350.599 290.849 351.4 256.012L351.412 255.5H350.9H256ZM392.331 77.7748L392.757 77.3991L392.33 77.0244C367.575 55.2761 338.009 38.9392 305.435 29.8185L303.581 29.2994L304.948 30.655C316.802 42.4092 327.572 57.7621 337.054 76.5255L337.055 76.5274C341.844 85.9072 346.136 95.8875 349.929 106.469L350.126 107.017L350.638 106.74C365.469 98.723 379.501 89.1016 392.331 77.7748ZM256.109 24.912L255.5 24.7764V25.4V132.4V132.926L256.025 132.899C281.982 131.596 307.138 125.884 330.691 116.162L331.129 115.981L330.972 115.534C327.265 105.015 323.057 95.0949 318.346 85.7745L317.9 86L318.346 85.7743C300.921 51.3244 279.227 30.0605 256.109 24.912ZM337.582 136.667L337.432 136.127L336.913 136.336C311.364 146.616 284.12 152.703 255.977 154.001L255.5 154.023V154.5V234.1V234.6H256H350.8H351.312L351.3 234.088C350.499 199.452 345.794 166.31 337.582 136.667ZM138.6 233.988L138.588 234.5H139.1H233.4H233.9H234V234H234.4V154.3V153.821L233.921 153.8C205.879 152.603 178.535 146.615 152.988 136.237L152.468 136.025L152.318 136.567C144.106 166.21 139.401 199.352 138.6 233.988ZM234.6 25.4V24.7764L233.991 24.912C210.873 30.0605 189.179 51.3244 171.754 85.7743L171.754 85.7745C167.043 95.0949 162.835 105.015 159.128 115.534L158.971 115.981L159.409 116.162C182.862 125.884 208.118 131.597 234.075 132.899L234.6 132.926V132.4V25.4ZM185.152 30.655L186.519 29.2994L184.665 29.8185C152.091 38.9392 122.525 55.2761 97.77 77.0244L97.3418 77.4006L97.7705 77.7761C110.699 89.1012 124.63 98.7224 139.462 106.74L139.97 107.014L140.169 106.473C144.063 95.8888 148.356 85.9059 153.047 76.5236C162.529 57.8599 173.299 42.4081 185.152 30.655ZM82.6325 92.3266L82.2682 92.0022L81.9349 92.3584C46.8573 129.841 24.5067 179.352 21.8006 233.975L21.7746 234.5H22.3H117.3H117.79L117.8 234.011C118.599 196.25 123.993 159.993 133.281 127.638L133.393 127.245L133.03 127.056C114.967 117.675 98.1014 106.099 82.6325 92.3266ZM22.3 255.5H21.7747L21.8006 256.025C24.5067 310.848 46.9576 360.46 82.3359 398.043L82.6703 398.398L83.0337 398.072C98.4009 384.302 115.266 372.826 133.23 363.544L133.594 363.356L133.48 362.961C124.093 330.507 118.699 294.05 117.8 255.988L117.788 255.5H117.3H22.3ZM98.1707 412.624L97.7405 413L98.171 413.376C122.826 434.924 152.292 451.161 184.664 460.281L186.508 460.801L185.154 459.446C173.299 447.591 162.528 432.238 153.046 413.475L153.045 413.473C148.356 404.294 144.164 394.413 140.369 384.127L140.17 383.587L139.663 383.86C124.93 391.777 110.999 401.399 98.1707 412.624ZM233.991 465.088L234.6 465.224V464.6V358.3V357.776L234.077 357.801C208.218 359.003 183.061 364.716 159.609 374.438L159.168 374.621L159.329 375.069C163.035 385.385 167.143 395.105 171.754 404.226L172.2 404L171.754 404.226C189.179 438.676 210.873 459.94 233.991 465.088ZM152.618 354.034L152.769 354.574L153.288 354.363C178.835 343.985 206.079 337.997 234.121 336.8L234.6 336.779V336.3V256V255.5H234.1H139.2H138.688L138.7 256.012C139.501 290.849 144.306 324.191 152.618 354.034ZM255.6 464.6V465.224L256.209 465.088C279.327 459.94 301.021 438.676 318.446 404.226L318 404L318.446 404.226C323.057 395.105 327.165 385.385 330.871 375.069L331.032 374.621L330.591 374.438C307.137 364.716 281.981 359.103 256.125 357.801L255.6 357.774V358.3V464.6ZM305.048 459.345L303.684 460.697L305.534 460.182C337.908 451.161 367.375 434.924 392.03 413.276L392.459 412.899L392.029 412.524C379.201 401.299 365.27 391.677 350.537 383.76L350.03 383.487L349.831 384.027C346.036 394.313 341.844 404.194 337.155 413.373L337.154 413.375C327.672 432.139 316.901 447.591 305.048 459.345ZM407.268 398.074L407.631 398.397L407.965 398.042C443.243 360.459 465.693 310.848 468.499 256.026L468.526 255.5H468H373H372.512L372.5 255.988C371.601 293.95 366.206 330.507 356.82 362.961L356.706 363.356L357.07 363.544C375.033 372.825 391.899 384.401 407.268 398.074Z" fill="white" stroke="white"/>
</svg>
